<svg xmlns="http://www.w3.org/2000/svg" width="100%" height="100%" viewBox="0 0 1920 1080" preserveAspectRatio="xMidYMid slice">
  <defs>
    <pattern id="logoPattern" width="300" height="122" patternUnits="userSpaceOnUse" patternTransform="rotate(-30)">
      <g id="logo">
        <g transform="translate(0,122) scale(0.1,-0.1)" fill="red" stroke="none">
          <path d="M546 1078c-14-46-34-117-44-158-11-41-28-91-40-110-71-122-67-299 11-432 24-42 98-117 144-148 22-15 23-16 8-70-19-69-19-70 3-70 14 0 23 24 47 128 52 222 40 310-60 422-53 59-81 114-91 177-5 32 2 72 31 175 21 73 42 141 47 151 7 13 5 17-11 17-17 0-25-15-45-82zm-17-364c19-36 49-82 67-101 44-46 76-115 81-172 5-55-18-183-34-188-22-8-130 111-164 182-32 65-34 76-34 170 1 76 5 109 19 138 10 20 21 37 25 37 3 0 21-30 40-66z"/>
          <path d="M660 1150 660 840" stroke="red" stroke-width="32"/>
          <path d="M750 1150 750 840" stroke="red" stroke-width="32"/>
          <path d="M840 1150 840 840" stroke="red" stroke-width="32"/>
          <path d="M916 1083c29-121 46-240 40-281-9-64-38-121-92-177-89-94-119-203-90-328 27-114 92-219 157-253 36-18 102-18 138 0 67 35 155 166 176 265 4 19 20 61 35 93 39 82 54 179 41 254-22 118-102 241-200 304l-23 16 19 72c19 66 19 72 3 72-24 0-75-210-75-310 1-91 22-143 88-218 73-82 82-104 82-207 0-82-3-96-34-159-57-118-142-183-211-161-98 31-195 244-170 374 13 67 31 101 92 168 91 100 111 183 84 338-25 143-39 189-57 193-15 3-15-2-3-55zm240-185c24-18 44-39 44-45 0-7 5-13 10-13 6 0 10-7 10-15 0-8 3-15 8-15 8 0 32-45 53-99 26-70 11-281-20-281-3 0-19 29-35 65-16 35-40 78-55 94-57 65-68 82-92 146-13 37-13 149 1 175 15 27 26 25 76-12z"/>
          <path d="M1180 1000 Q1440 850 1365 450 Q1300 270 1300 270" stroke="red" stroke-width="32" fill="none"/>
          <path d="M410 868 Q290 630 365 450 Q430 250 580 170" stroke="red" stroke-width="32" fill="none"/>
          <path d="M900 480 Q850 250 960 170" stroke="red" stroke-width="32" fill="none"/>
        </g>
        <text x="190" y="60" font-size="60" text-anchor="middle" fill="red">Big</text>
        <text x="215" y="115" font-size="60" text-anchor="middle" fill="red">Joe's</text>
      </g>
      <animate attributeName="x" values="0;-300;0" dur="30s" repeatCount="indefinite" />
      <animate attributeName="y" values="0;-122;0" dur="30s" repeatCount="indefinite" />
    </pattern>
  </defs>

  <rect width="100%" height="100%" fill="url(#logoPattern)" />
</svg>
