<svg version="1.0" xmlns="http://www.w3.org/2000/svg"
 width="300.000000pt" height="122.000000pt" viewBox="0 0 300.000000 122.000000"
 preserveAspectRatio="xMidYMid meet">
<g transform="translate(0.000000,122.000000) scale(0.100000,-0.100000)"
fill="#000000" stroke="none">
<path d="M546 1078 c-14 -46 -34 -117 -44 -158 -11 -41 -28 -91 -40 -110 -71
-122 -67 -299 11 -432 24 -42 98 -117 144 -148 22 -15 23 -16 8 -70 -19 -69
-19 -70 3 -70 14 0 23 24 47 128 52 222 40 310 -60 422 -53 59 -81 114 -91
177 -5 32 2 72 31 175 21 73 42 141 47 151 7 13 5 17 -11 17 -17 0 -25 -15
-45 -82z m-17 -364 c19 -36 49 -82 67 -101 44 -46 76 -115 81 -172 5 -55 -18
-183 -34 -188 -22 -8 -130 111 -164 182 -32 65 -34 76 -34 170 1 76 5 109 19
138 10 20 21 37 25 37 3 0 21 -30 40 -66z"/>
<path d="M636 1018 c-20 -172 -20 -178 -2 -178 10 0 17 28 26 103 6 56 15 125
19 154 7 49 2 63 -23 63 -2 0 -11 -64 -20 -142z"/>
<path d="M730 990 c0 -136 2 -160 15 -160 12 0 15 16 15 83 0 46 3 118 6 160
7 74 6 77 -15 77 -21 0 -21 -3 -21 -160z"/>
<path d="M824 1048 c3 -50 6 -120 6 -155 0 -57 2 -63 21 -63 19 0 20 4 15 68
-3 37 -8 106 -12 155 -5 70 -9 87 -21 87 -14 0 -15 -12 -9 -92z"/>
<path d="M916 1083 c29 -121 46 -240 40 -281 -9 -64 -38 -121 -92 -177 -89
-94 -119 -203 -90 -328 27 -114 92 -219 157 -253 36 -18 102 -18 138 0 67 35
155 166 176 265 4 19 20 61 35 93 39 82 54 179 41 254 -22 118 -102 241 -200
304 l-23 16 19 72 c19 66 19 72 3 72 -24 0 -75 -210 -75 -310 1 -91 22 -143
88 -218 73 -82 82 -104 82 -207 0 -82 -3 -96 -34 -159 -57 -118 -142 -183
-211 -161 -98 31 -195 244 -170 374 13 67 31 101 92 168 91 100 111 183 84
338 -25 143 -39 189 -57 193 -15 3 -15 -2 -3 -55z m240 -185 c24 -18 44 -39
44 -45 0 -7 5 -13 10 -13 6 0 10 -7 10 -15 0 -8 3 -15 8 -15 8 0 32 -45 53
-99 26 -70 11 -281 -20 -281 -3 0 -19 29 -35 65 -16 35 -40 78 -55 94 -57 65
-68 82 -92 146 -13 37 -13 149 1 175 15 27 26 25 76 -12z"/>
<path d="M1827 1052 c-35 -38 -5 -102 47 -102 32 0 69 45 60 74 -13 46 -76 62
-107 28z m71 -40 c3 -18 -1 -22 -22 -22 -19 0 -26 5 -26 18 0 39 43 43 48 4z"/>
<path d="M1438 934 c-1 -71 -2 -169 -2 -219 l-1 -90 111 -3 c126 -3 177 9 207
50 31 41 28 111 -7 146 -26 29 -26 29 -6 47 25 23 28 100 4 134 -25 36 -69 48
-191 56 l-113 8 -2 -129z m211 84 c73 -15 100 -72 66 -138 -15 -29 -12 -53 11
-80 14 -17 19 -66 9 -95 -12 -40 -43 -50 -157 -50 -100 -1 -107 1 -112 20 -10
39 5 339 17 347 16 9 112 7 166 -4z"/>
<path d="M1563 972 c-6 -4 -17 -20 -22 -35 -9 -24 -8 -31 14 -53 37 -37 76
-31 100 16 13 25 13 30 -6 54 -20 26 -60 34 -86 18z m72 -52 c0 -22 -5 -25
-37 -28 -36 -3 -38 -2 -38 28 0 30 2 31 38 28 32 -3 37 -6 37 -28z"/>
<path d="M1550 805 c-29 -35 -13 -88 30 -104 34 -11 84 15 95 50 16 48 -91 95
-125 54z m95 -45 c0 -22 -5 -25 -42 -28 -43 -3 -43 -3 -43 31 l0 33 43 -5 c37
-5 42 -9 42 -31z"/>
<path d="M1160 1001 c0 -5 29 -38 63 -73 151 -150 187 -367 94 -550 -29 -55
-32 -68 -19 -73 18 -7 14 -11 46 52 76 153 73 339 -9 479 -51 87 -175 204
-175 165z"/>
<path d="M1810 775 l0 -153 60 -4 60 -3 0 155 0 155 -60 1 -60 2 0 -153z m88
-2 c-3 -113 -4 -118 -25 -121 -16 -2 -24 3 -28 20 -4 18 -1 205 4 216 0 1 12
2 26 2 l26 0 -3 -117z"/>
<path d="M2040 913 c-96 -50 -101 -216 -7 -273 39 -24 104 -26 135 -4 30 21
40 10 21 -24 -18 -32 -77 -43 -98 -18 -11 13 -19 12 -62 -11 -49 -25 -49 -26
-32 -46 48 -54 163 -73 239 -38 67 31 76 62 72 257 l-3 164 -57 0 c-47 0 -58
-3 -58 -17 0 -15 -2 -15 -19 1 -29 26 -90 30 -131 9z m121 -31 c16 -7 31 -7
43 0 29 16 64 1 70 -29 10 -48 5 -257 -6 -278 -15 -27 -48 -55 -67 -56 -9 0
-34 -2 -57 -5 -48 -5 -94 9 -94 30 0 23 11 25 69 13 52 -11 54 -11 77 16 44
52 21 103 -38 86 -63 -18 -94 -12 -126 25 -38 44 -47 92 -27 144 25 63 84 83
156 54z"/>
<path d="M2079 831 c-36 -36 -37 -70 -3 -110 19 -23 34 -31 57 -31 79 1 111
87 55 148 -30 31 -73 29 -109 -7z m95 -17 c19 -18 21 -65 4 -82 -7 -7 -26 -12
-43 -12 -38 0 -55 16 -55 51 0 34 24 59 55 59 13 0 31 -7 39 -16z"/>
<path d="M402 868 c-62 -100 -87 -252 -63 -371 20 -93 74 -188 148 -262 37
-36 70 -65 74 -65 17 0 19 34 2 43 -10 5 -41 33 -69 62 -92 96 -143 240 -131
369 6 68 38 165 69 208 18 26 17 48 -2 48 -5 0 -17 -15 -28 -32z"/>
<path d="M1440 551 c0 -6 12 -11 26 -11 l26 0 -5 -205 c-5 -216 -10 -239 -51
-233 -28 4 -33 34 -6 41 29 7 27 52 -4 72 -53 35 -111 -16 -84 -73 17 -35 53
-52 113 -52 65 0 116 26 136 70 15 31 28 193 29 354 0 21 4 27 15 23 8 -4 17
-2 20 3 4 6 -28 10 -82 10 -48 0 -98 3 -110 6 -14 4 -23 2 -23 -5z m138 -33
c11 -14 14 -190 5 -281 -4 -43 -12 -63 -31 -82 -14 -14 -29 -25 -33 -25 -5 0
-9 82 -9 182 0 159 2 183 18 199 21 21 36 23 50 7z m-168 -348 c0 -9 -3 -20
-7 -23 -10 -10 -33 13 -27 27 7 19 34 15 34 -4z"/>
<path d="M2392 544 c-26 -18 -29 -46 -6 -65 12 -10 20 -10 35 -1 26 16 29 15
29 -10 0 -12 -14 -37 -32 -55 -18 -18 -27 -33 -20 -33 6 0 27 16 47 35 28 29
35 43 35 75 0 38 -25 70 -55 70 -6 0 -21 -7 -33 -16z"/>
<path d="M881 468 c-6 -17 -11 -59 -11 -94 0 -99 60 -237 91 -207 9 9 7 18 -9
40 -45 64 -62 179 -37 259 11 36 -22 38 -34 2z"/>
<path d="M1780 401 c-97 -31 -137 -135 -91 -237 42 -92 202 -112 276 -34 25
27 30 40 33 99 5 80 -13 128 -57 154 -33 19 -125 30 -161 18z m91 -41 c11 -40
10 -219 -1 -241 -13 -23 -55 -25 -64 -3 -8 21 -8 238 0 259 10 26 57 15 65
-15z m-102 -127 c1 -50 -3 -94 -8 -98 -11 -6 -55 49 -66 82 -8 29 13 91 40
119 17 18 21 19 26 5 4 -9 7 -57 8 -108z m175 108 c50 -55 32 -207 -24 -206
-12 0 -15 18 -16 95 -1 135 5 150 40 111z"/>
<path d="M2110 382 c-23 -12 -43 -35 -59 -67 -23 -44 -24 -52 -13 -103 19 -90
74 -132 172 -132 62 0 105 20 125 60 18 34 18 40 5 40 -5 0 -10 -6 -10 -13 0
-23 -55 -67 -84 -67 -57 0 -86 40 -86 119 l0 36 95 -1 95 -2 -6 37 c-9 51 -21
69 -57 91 -42 26 -130 27 -177 2z m110 -11 c5 -11 10 -38 10 -60 0 -40 -1 -41
-35 -41 -34 0 -35 1 -35 41 0 46 14 79 35 79 8 0 19 -9 25 -19z m77 -46 c8
-14 8 -24 1 -33 -15 -17 -38 3 -38 34 0 28 20 28 37 -1z m-161 -55 c2 -36 6
-84 9 -108 5 -47 4 -48 -31 -26 -28 19 -54 73 -54 113 0 36 36 93 57 89 12 -2
17 -18 19 -68z"/>
<path d="M2524 366 c-62 -62 -38 -139 54 -171 92 -33 112 -44 112 -64 0 -38
-57 -52 -119 -30 -22 8 -39 25 -56 58 l-24 46 -1 -69 c0 -66 1 -68 18 -53 16
15 22 15 62 1 48 -17 100 -12 137 12 47 30 48 136 0 169 -12 9 -47 23 -77 32
-70 20 -93 39 -79 64 7 14 21 19 50 19 51 0 75 -13 99 -53 l20 -32 0 54 c0 46
-2 52 -15 41 -11 -9 -22 -9 -46 -1 -60 21 -98 14 -135 -23z m83 -87 c32 -12
68 -31 81 -42 22 -21 31 -67 12 -67 -5 0 -10 4 -10 8 0 5 -25 15 -56 22 -57
14 -114 57 -114 86 0 19 19 18 87 -7z"/>
</g>
</svg>
